:FULLY-SPECIFIED
:FORCE-ALL-JOINTS-BE-3DOF
:DEGREES
985
root 1.11483 15.1522 32.4941 5.36334 -4.67972 364.134
lfemur 8.71557 1.76782 5.1614
ltibia 3.44529e-14 0 0
lfoot -30.1087 -11.7231 0
ltoes -33.8615 0 0
rfemur -32.9591 -15.4799 -6.27432
rtibia 50.852 0 0
rfoot -22.6292 4.95653 0
rtoes -41.9468 0 0
lowerback -1.52933 -0.418955 0.689116
upperback -0.72448 -0.563025 -5.90776
thorax 0.0454438 -0.29803 -6.52746
lowerneck -6.65649 1.14076 5.85636
upperneck 1.08141 0.941476 3.3448
head 1.47154 0.573483 0.0899836
lclavicle 8.08814e-15 2.62604e-14 0
lhumerus -58.4434 -45.2335 114.861
lradius 55.0767 0 0
lwrist 25.2203 0 0
lhand 37.2614 24.4333 0
lfingers 7.12502 0 0
lthumb 60.0888 38.1201 0
rclavicle 8.08814e-15 2.62604e-14 0
rhumerus 3.74961 -24.9982 -0.175939
rradius 28.0352 0 0
rwrist -11.2797 0 0
rhand -31.3989 -44.5096 0
rfingers 7.12502 0 0
rthumb -4.6683 -794.438 0
986
root 1.11812 15.1541 32.4887 5.33079 -4.67516 364.12
lfemur 8.72365 1.75193 5.16397
ltibia 2.80547e-14 0 0
lfoot -30.1103 -11.7053 0
ltoes -33.8825 0 0
rfemur -32.9011 -15.5179 -6.26421
rtibia 50.7701 0 0
rfoot -22.6537 4.95996 0
rtoes -42.0504 0 0
lowerback -1.51462 -0.394883 0.683331
upperback -0.721117 -0.530828 -5.88682
thorax 0.0447793 -0.28165 -6.5012
lowerneck -6.71 1.15223 5.83994
upperneck 1.13537 0.951279 3.34747
head 1.4985 0.580709 0.0942607
lclavicle -9.31968e-17 1.53789e-14 0
lhumerus -58.3629 -45.1731 114.85
lradius 55.0604 0 0
lwrist 25.1043 0 0
lhand 37.2473 24.4105 0
lfingers 7.12502 0 0
lthumb 60.0767 38.11 0
rclavicle -9.31968e-17 1.53789e-14 0
rhumerus 3.74877 -24.9254 -0.170661
rradius 28.0081 0 0
rwrist -11.2243 0 0
rhand -31.4255 -44.5054 0
rfingers 7.12502 0 0
rthumb -4.69405 -794.433 0
987
root 1.12114 15.1559 32.4833 5.29953 -4.66333 364.104
lfemur 8.7279 1.72998 5.16892
ltibia 2.25049e-14 0 0
lfoot -30.1127 -11.6832 0
ltoes -33.9037 0 0
rfemur -32.8425 -15.5553 -6.25393
rtibia 50.694 0 0
rfoot -22.6781 4.95481 0
rtoes -42.155 0 0
lowerback -1.50039 -0.374361 0.676736
upperback -0.717347 -0.503347 -5.86798
thorax 0.0442253 -0.267642 -6.47678
lowerneck -6.75596 1.16207 5.82849
upperneck 1.18152 0.959418 3.3515
head 1.52159 0.586825 0.0980243
lclavicle -7.22004e-15 6.09683e-15 0
lhumerus -58.2998 -45.1362 114.851
lradius 55.0474 0 0
lwrist 25.0147 0 0
lhand 37.2368 24.3918 0
lfingers 7.12502 0 0
lthumb 60.0678 38.1008 0
rclavicle -7.22004e-15 6.09683e-15 0
rhumerus 3.74768 -24.8508 -0.169272
rradius 27.9843 0 0
rwrist -11.1762 0 0
rhand -31.4429 -44.4901 0
rfingers 7.12502 0 0
rthumb -4.71081 -794.418 0
988
root 1.1238 15.1573 32.4781 5.2697 -4.63928 364.088
lfemur 8.7258 1.6976 5.17712
ltibia 1.90833e-14 0 0
lfoot -30.1159 -11.6552 0
ltoes -33.9256 0 0
rfemur -32.7814 -15.5868 -6.24436
rtibia 50.6256 0 0
rfoot -22.6997 4.93313 0
rtoes -42.2585 0 0
lowerback -1.48754 -0.359459 0.669615
upperback -0.712469 -0.483304 -5.85243
thorax 0.0446671 -0.257355 -6.4557
lowerneck -6.78983 1.16834 5.82499
upperneck 1.21788 0.963487 3.35806
head 1.53935 0.590558 0.101043
lclavicle -1.22253e-14 0 0
lhumerus -58.2643 -45.1387 114.869
lradius 55.0398 0 0
lwrist 24.9687 0 0
lhand 37.2319 24.379 0
lfingers 7.12502 0 0
lthumb 60.0636 38.0924 0
rclavicle -1.22253e-14 0 0
rhumerus 3.74548 -24.7764 -0.17803
rradius 27.9644 0 0
rwrist -11.1351 0 0
rhand -31.4451 -44.4536 0
rfingers 7.12502 0 0
rthumb -4.71295 -794.381 0
989
root 1.12608 15.1584 32.4729 5.24099 -4.60254 364.071
lfemur 8.7174 1.65419 5.18867
ltibia 1.74884e-14 0 0
lfoot -30.1206 -11.6211 0
ltoes -33.9472 0 0
rfemur -32.7174 -15.6165 -6.23543
rtibia 50.5651 0 0
rfoot -22.7222 4.89408 0
rtoes -42.3675 0 0
lowerback -1.47524 -0.350888 0.661321
upperback -0.70677 -0.471681 -5.84031
thorax 0.0452222 -0.251302 -6.43775
lowerneck -6.8096 1.1719 5.83048
upperneck 1.24147 0.964829 3.36772
head 1.55048 0.592477 0.103352
lclavicle -1.5399e-14 -3.38455e-15 0
lhumerus -58.2604 -45.1872 114.91
lradius 55.0369 0 0
lwrist 24.9722 0 0
lhand 37.2352 24.3722 0
lfingers 7.12502 0 0
lthumb 60.0664 38.0827 0
rclavicle -1.5399e-14 -3.38455e-15 0
rhumerus 3.74498 -24.6979 -0.197861
rradius 27.9489 0 0
rwrist -11.104 0 0
rhand -31.4299 -44.3943 0
rfingers 7.12502 0 0
rthumb -4.69822 -794.322 0
990
root 1.12801 15.1592 32.4677 5.21316 -4.55735 364.053
lfemur 8.70494 1.60345 5.20281
ltibia 1.64823e-14 0 0
lfoot -30.1272 -11.5823 0
ltoes -33.9681 0 0
rfemur -32.6523 -15.6501 -6.22636
rtibia 50.5106 0 0
rfoot -22.7495 4.84446 0
rtoes -42.4859 0 0
lowerback -1.4624 -0.347044 0.651383
upperback -0.700971 -0.466386 -5.83062
thorax 0.0448096 -0.248457 -6.42151
lowerneck -6.81864 1.17477 5.84267
upperneck 1.25303 0.966027 3.37963
head 1.55586 0.593905 0.10517
lclavicle -1.77865e-14 -5.62392e-15 0
lhumerus -58.28 -45.2699 114.969
lradius 55.0364 0 0
lwrist 25.0123 0 0
lhand 37.2455 24.3697 0
lfingers 7.12502 0 0
lthumb 60.0752 38.0709 0
rclavicle -1.77865e-14 -5.62392e-15 0
rhumerus 3.74783 -24.6122 -0.223509
rradius 27.9372 0 0
rwrist -11.084 0 0
rhand -31.4015 -44.3206 0
rfingers 7.12502 0 0
rthumb -4.67088 -794.249 0
991
root 1.12966 15.1598 32.4626 5.18649 -4.50585 364.035
lfemur 8.68922 1.54745 5.21918
ltibia 1.59399e-14 0 0
lfoot -30.1351 -11.5396 0
ltoes -33.9888 0 0
rfemur -32.5869 -15.6854 -6.21693
rtibia 50.4614 0 0
rfoot -22.7787 4.78777 0
rtoes -42.6079 0 0
lowerback -1.44957 -0.346526 0.640355
upperback -0.695018 -0.465531 -5.8228
thorax 0.0440165 -0.247858 -6.40672
lowerneck -6.82047 1.17673 5.85953
upperneck 1.25621 0.966542 3.39284
head 1.55726 0.594698 0.106537
lclavicle -1.94532e-14 -6.77375e-15 0
lhumerus -58.3158 -45.375 115.04
lradius 55.0382 0 0
lwrist 25.0771 0 0
lhand 37.2597 24.3709 0
lfingers 7.12502 0 0
lthumb 60.0873 38.0592 0
rclavicle -1.94532e-14 -6.77375e-15 0
rhumerus 3.75153 -24.5228 -0.251963
rradius 27.9287 0 0
rwrist -11.0723 0 0
rhand -31.3644 -44.2376 0
rfingers 7.12502 0 0
rthumb -4.63505 -794.167 0
992
root 1.13111 15.1602 32.4576 5.16125 -4.45015 364.016
lfemur 8.67104 1.48823 5.23737
ltibia 1.57359e-14 0 0
lfoot -30.1433 -11.4937 0
ltoes -34.0102 0 0
rfemur -32.5222 -15.7202 -6.2069
rtibia 50.4165 0 0
rfoot -22.807 4.7275 0
rtoes -42.7275 0 0
lowerback -1.43729 -0.347934 0.62879
upperback -0.688855 -0.467227 -5.81631
thorax 0.0434304 -0.248541 -6.39309
lowerneck -6.81861 1.17756 5.87902
upperneck 1.25466 0.965832 3.40636
head 1.55649 0.594709 0.107495
lclavicle -2.0465e-14 -6.88966e-15 0
lhumerus -58.3605 -45.4904 115.115
lradius 55.0425 0 0
lwrist 25.155 0 0
lhand 37.2747 24.375 0
lfingers 7.12502 0 0
lthumb 60.1002 38.0497 0
rclavicle -2.0465e-14 -6.88966e-15 0
rhumerus 3.75357 -24.4333 -0.280211
rradius 27.9228 0 0
rwrist -11.0662 0 0
rhand -31.3228 -44.1502 0
rfingers 7.12502 0 0
rthumb -4.59485 -794.08 0
993
root 1.1324 15.1605 32.4529 5.1377 -4.39235 363.996
lfemur 8.65119 1.42785 5.257
ltibia 1.57452e-14 0 0
lfoot -30.151 -11.4454 0
ltoes -34.0329 0 0
rfemur -32.459 -15.7523 -6.19604
rtibia 50.3752 0 0
rfoot -22.8314 4.66712 0
rtoes -42.8388 0 0
lowerback -1.42611 -0.349866 0.61724
upperback -0.682427 -0.469586 -5.81061
thorax 0.0436385 -0.249543 -6.38033
lowerneck -6.81656 1.17704 5.8991
upperneck 1.25203 0.963357 3.41923
head 1.55532 0.593793 0.108086
lclavicle -2.08873e-14 -6.02729e-15 0
lhumerus -58.4069 -45.6044 115.188
lradius 55.0493 0 0
lwrist 25.2342 0 0
lhand 37.2873 24.3814 0
lfingers 7.12502 0 0
lthumb 60.1109 38.0447 0
rclavicle -2.08873e-14 -6.02729e-15 0
rhumerus 3.75143 -24.3473 -0.305242
rradius 27.9187 0 0
rwrist -11.0628 0 0
rhand -31.2809 -44.0634 0
rfingers 7.12502 0 0
rthumb -4.5544 -793.994 0
994
root 1.13362 15.161 32.4484 5.11612 -4.33457 363.975
lfemur 8.63046 1.36836 5.27768
ltibia 1.58425e-14 0 0
lfoot -30.1576 -11.3955 0
ltoes -34.0577 0 0
rfemur -32.3982 -15.7794 -6.18414
rtibia 50.3367 0 0
rfoot -22.8492 4.61014 0
rtoes -42.9358 0 0
lowerback -1.41656 -0.350922 0.606259
upperback -0.675682 -0.470718 -5.80517
thorax 0.0452282 -0.249901 -6.36816
lowerneck -6.81786 1.17495 5.91774
upperneck 1.25197 0.958578 3.43049
head 1.55556 0.591806 0.108351
lclavicle -2.07859e-14 -4.24229e-15 0
lhumerus -58.4476 -45.7051 115.251
lradius 55.0584 0 0
lwrist 25.3029 0 0
lhand 37.2944 24.3893 0
lfingers 7.12502 0 0
lthumb 60.117 38.0462 0
rclavicle -2.07859e-14 -4.24229e-15 0
rhumerus 3.7426 -24.2683 -0.324045
rradius 27.9159 0 0
rwrist -11.0593 0 0
rhand -31.2431 -43.9823 0
rfingers 7.12502 0 0
rthumb -4.51784 -793.914 0
